<svg xmlns="http://www.w3.org/2000/svg" xmlns:xlink="http://www.w3.org/1999/xlink" width="77.181" height="193.565" viewBox="0 0 77.181 193.565">
  <defs>
    <linearGradient id="linear-gradient" x1="-16.008" y1="22.775" x2="3.298" y2="-3.294" gradientUnits="objectBoundingBox">
      <stop offset="0" stop-color="#db9125"/>
      <stop offset="0.002" stop-color="#db9326"/>
      <stop offset="0.041" stop-color="#e8b743"/>
      <stop offset="0.08" stop-color="#f2d35a"/>
      <stop offset="0.12" stop-color="#f9e76b"/>
      <stop offset="0.159" stop-color="#fdf374"/>
      <stop offset="0.199" stop-color="#fff778"/>
      <stop offset="0.278" stop-color="#e9c24a"/>
      <stop offset="0.336" stop-color="#d99a26"/>
      <stop offset="0.357" stop-color="#ca8e23"/>
      <stop offset="0.395" stop-color="#b67d20"/>
      <stop offset="0.434" stop-color="#aa741e"/>
      <stop offset="0.473" stop-color="#a7711e"/>
      <stop offset="0.511" stop-color="#ab7622"/>
      <stop offset="0.558" stop-color="#b8852e"/>
      <stop offset="0.609" stop-color="#cd9e42"/>
      <stop offset="0.663" stop-color="#eac05e"/>
      <stop offset="0.681" stop-color="#f6ce69"/>
      <stop offset="0.722" stop-color="#f3c862"/>
      <stop offset="0.781" stop-color="#eaba4f"/>
      <stop offset="0.85" stop-color="#dda230"/>
      <stop offset="0.87" stop-color="#d99a26"/>
      <stop offset="1" stop-color="#f6ce69"/>
    </linearGradient>
    <linearGradient id="linear-gradient-2" x1="-97.122" y1="90.806" x2="62.186" y2="-55.814" xlink:href="#linear-gradient"/>
    <linearGradient id="linear-gradient-3" x1="-11.381" y1="14.361" x2="13.682" y2="-14.879" gradientUnits="objectBoundingBox">
      <stop offset="0" stop-color="#011224"/>
      <stop offset="0.002" stop-color="#db9326"/>
      <stop offset="0.041" stop-color="#e8b743"/>
      <stop offset="0.08" stop-color="#f2d35a"/>
      <stop offset="0.12" stop-color="#f9e76b"/>
      <stop offset="0.159" stop-color="#fdf374"/>
      <stop offset="0.199" stop-color="#fff778"/>
      <stop offset="0.278" stop-color="#e9c24a"/>
      <stop offset="0.336" stop-color="#d99a26"/>
      <stop offset="0.357" stop-color="#ca8e23"/>
      <stop offset="0.395" stop-color="#b67d20"/>
      <stop offset="0.434" stop-color="#aa741e"/>
      <stop offset="0.473" stop-color="#a7711e"/>
      <stop offset="0.511" stop-color="#ab7622"/>
      <stop offset="0.558" stop-color="#b8852e"/>
      <stop offset="0.609" stop-color="#cd9e42"/>
      <stop offset="0.663" stop-color="#eac05e"/>
      <stop offset="0.681" stop-color="#f6ce69"/>
      <stop offset="0.722" stop-color="#f3c862"/>
      <stop offset="0.781" stop-color="#eaba4f"/>
      <stop offset="0.85" stop-color="#dda230"/>
      <stop offset="0.87" stop-color="#d99a26"/>
      <stop offset="1" stop-color="#f6ce69"/>
    </linearGradient>
    <linearGradient id="linear-gradient-7" x1="-133.717" y1="129.252" x2="28.629" y2="-27.003" xlink:href="#linear-gradient"/>
    <linearGradient id="linear-gradient-8" x1="-75.291" y1="72.923" x2="30.807" y2="-28.513" xlink:href="#linear-gradient"/>
    <linearGradient id="linear-gradient-9" x1="-5.19" y1="4.486" x2="1.974" y2="-0.422" xlink:href="#linear-gradient"/>
    <linearGradient id="linear-gradient-10" x1="-17.64" y1="15.137" x2="23.021" y2="-17.672" xlink:href="#linear-gradient"/>
    <linearGradient id="linear-gradient-11" x1="-8.526" y1="10.233" x2="12.766" y2="-12.58" xlink:href="#linear-gradient"/>
    <linearGradient id="linear-gradient-12" x1="-5.394" y1="5.479" x2="35.268" y2="-29.075" xlink:href="#linear-gradient"/>
    <linearGradient id="linear-gradient-13" x1="-12.303" y1="15.498" x2="12.746" y2="-13.846" xlink:href="#linear-gradient"/>
    <linearGradient id="linear-gradient-14" x1="-12.349" y1="15.484" x2="6.029" y2="-5.948" xlink:href="#linear-gradient"/>
    <linearGradient id="linear-gradient-15" x1="-9.94" y1="12.678" x2="8.439" y2="-8.763" xlink:href="#linear-gradient"/>
    <linearGradient id="linear-gradient-16" x1="-9.123" y1="11.727" x2="9.255" y2="-9.714" xlink:href="#linear-gradient"/>
    <linearGradient id="linear-gradient-17" x1="-15.356" y1="19.051" x2="9.722" y2="-10.293" xlink:href="#linear-gradient"/>
    <linearGradient id="linear-gradient-18" x1="-7.498" y1="7.394" x2="3.98" y2="-2.834" xlink:href="#linear-gradient"/>
  </defs>
  <g id="Group_77" data-name="Group 77" transform="translate(-313.732 19.338)">
    <g id="Group_78" data-name="Group 78">
      <g id="Group_75" data-name="Group 75" transform="matrix(0.996, 0.087, -0.087, 0.996, 249.403, -68.286)">
        <g id="Group_73" data-name="Group 73">
          <g id="Group_72" data-name="Group 72" opacity="0.5">
            <path id="Path_3611" data-name="Path 3611" d="M106.883,163.165l-.634,1.333-.914-.639c-.1.045-.2.09-.291.141l1.312.919.908-1.918C107.135,163.058,107.006,163.108,106.883,163.165Z" fill="url(#linear-gradient)"/>
            <path id="Path_3612" data-name="Path 3612" d="M93.052,173.844h.269V173.5C93.231,173.615,93.141,173.727,93.052,173.844Z" fill="url(#linear-gradient-2)"/>
            <path id="Path_3613" data-name="Path 3613" d="M94.4,175.711l-.858,1.481,1.48.852.853-1.48Zm.522,1.952-.993-.577.572-.993.992.572Z" fill="url(#linear-gradient-3)"/>
            <path id="Path_3614" data-name="Path 3614" d="M95.019,180.2l-1.48.852.858,1.48,1.475-.852Zm-1.093.953.993-.572.571.993-.992.577Z" fill="url(#linear-gradient-3)"/>
            <path id="Path_3615" data-name="Path 3615" d="M88.269,186.325l-.852,1.474,1.475.858.857-1.48Zm.522,1.945L87.8,187.7l.572-.993.992.572Z" fill="url(#linear-gradient-3)"/>
            <path id="Path_3616" data-name="Path 3616" d="M91.611,184.391v1.71h1.71v-1.71Zm1.429,1.43H91.891v-1.15H93.04Z" fill="url(#linear-gradient-3)"/>
            <path id="Path_3617" data-name="Path 3617" d="M108.789,168.737l.028.32c.073-.1.152-.2.236-.3Z" fill="url(#linear-gradient-7)"/>
            <path id="Path_3618" data-name="Path 3618" d="M104.971,175.252l.213.308c.062-.162.129-.325.191-.493Z" fill="url(#linear-gradient-8)"/>
            <path id="Path_3619" data-name="Path 3619" d="M152.492,200.879c-.051.079-.106.163-.168.241l.673.976c.033-.124.061-.246.084-.37Zm-.017,3.179c.04-.117.073-.235.107-.359l-.723.337V201.76c-.09.123-.185.246-.281.364v2.091l-1.25-.594-.2.218,1.626.769-.174.084v.051l-1.592-.752-.325-.157-1.082,1.547-1.453,2.075-.028.039v.09l2.411,3.481c.051-.089.1-.185.152-.274l-2.248-3.252,2.253-3.218.09-.129.022.011,1.8.846v1.621c.1-.246.191-.494.281-.746v-1.054l.431-.2c.039-.117.073-.241.107-.358l-.538.252v-.219Zm-.275-2.763c-.056.078-.112.162-.173.24l.818,1.183c.034-.117.062-.235.09-.353Z" fill="url(#linear-gradient-9)"/>
            <path id="Path_3620" data-name="Path 3620" d="M108.806,201.877h-.572v-.823c-.1-.141-.191-.281-.28-.421v1.524h1.054C108.94,202.068,108.873,201.972,108.806,201.877Z" fill="url(#linear-gradient-10)"/>
            <path id="Path_3621" data-name="Path 3621" d="M105.24,197.891l-1.48.858.852,1.475,1.48-.852Zm-1.1.959.993-.572.577.992-1,.572Z" fill="#011224"/>
            <path id="Path_3622" data-name="Path 3622" d="M111.693,205.225l-.431.745-.993-.577.572-.993.084.051c-.09-.1-.179-.2-.263-.292l-.774,1.34,1.474.852.539-.925C111.828,205.359,111.761,205.3,111.693,205.225Z" fill="url(#linear-gradient-11)"/>
            <path id="Path_3623" data-name="Path 3623" d="M95.7,200.448v1.709h1.7v-1.709Zm1.425,1.429H95.984v-1.149h1.144Z" fill="#011224"/>
            <path id="Path_3624" data-name="Path 3624" d="M95.7,212.7v1.7h1.7v-1.7Zm1.425,1.424H95.984v-1.144h1.144Z" fill="#011224"/>
            <path id="Path_3625" data-name="Path 3625" d="M94,208.5l-.852,1.481,1.48.852.852-1.48Zm.527,1.951-1-.577.578-.993.992.578Z" fill="#011224"/>
            <path id="Path_3626" data-name="Path 3626" d="M111.362,208.5l-1.474.853.852,1.48,1.48-.852Zm-1.093.959.993-.578.571,1-.992.571Z" fill="#011224"/>
            <path id="Path_3627" data-name="Path 3627" d="M104.612,214.632l-.852,1.48,1.475.852.857-1.48Zm.522,1.946-.993-.572.572-.992.992.572Z" fill="#011224"/>
            <path id="Path_3628" data-name="Path 3628" d="M100.127,197.891l-.852,1.481,1.48.852.852-1.475Zm.521,1.951-.992-.572.572-.992,1,.572Z" fill="#011224"/>
            <path id="Path_3629" data-name="Path 3629" d="M100.749,214.632l-1.474.852.852,1.48,1.48-.852Zm-1.093.954.992-.572.572.992-.992.572Z" fill="#011224"/>
            <path id="Path_3630" data-name="Path 3630" d="M107.954,212.7v1.7h1.71v-1.7Zm1.429,1.424h-1.149v-1.144h1.149Z" fill="#011224"/>
            <path id="Path_3631" data-name="Path 3631" d="M94.627,204.019l-1.48.852.852,1.48,1.48-.852Zm-1.1.959,1-.578.572.993-.992.577Z" fill="#011224"/>
            <path id="Path_3632" data-name="Path 3632" d="M119.772,160.512c-.179,0-.364,0-.561.006l.528.3a1.83,1.83,0,0,1,.325-.134ZM86.767,201.227c.05.241.1.477.157.713l.986,1.423-.555.258c.028.09.056.185.084.275l.892-.415Zm1.676,2.416-.948.443c.029.09.057.18.079.269l.774-.358,2.3,3.319-1.227,1.743c.044.1.089.191.14.286l1.379-1.968.039-.078Zm29.771-43.091-1.228.712-2.8-.241c-.336.056-.678.117-1.026.19l3.4.292-.3.174-3.123-.27.174,2.176-.157-.113-.045.029-.174-2.114-.415-.034c-.291.062-.583.13-.875.2l1.032.09.163,2.012-4.267,2.462-.006,0-1.693-1.182,1.037-2.192c-.123.044-.252.1-.375.145l-1.015,2.142,1.777,1.239-.185.112-1.676-1.171-1.391,2.937-.089.056.062.006-.09.185-.213-.017,1.558-3.286-1.429-1c-.1.045-.191.1-.286.152l1.356.947-1.6,3.381-1.441.835-.2.112-.235-.14-1.665-.959-.678-1.458c-.079.051-.158.107-.236.169l.488,1.043-.3-.169-.348-.751a2.193,2.193,0,0,0-.23.168l.157.337-.342-.2a2.306,2.306,0,0,0-.241.185l.7.4-1.34.112c-.129.1-.252.207-.376.309l2.142-.174.084.05-.022-.055.207-.018.09.191-2.753.224-.874.073-.068.785-.314,3.616.017.1,4.014,1.917,1.979-2.831v.342l-1.8,2.573,1.973.937-.174.084v.05l-1.917-.909-2.282,3.258v-.28l-.263.661-.017.023v.011l-.011.039.011.028v.011l.022.028.258.516v-.14l2.232,3.224,1.967-.92v.219l-1.855.864,1.855,2.679v.1l.034-.05.118.174-.118.173-2.069-2.993-3.644,1.7.14-.281,3.392-1.581L97.94,179.44l-6.952-.275,6.952-.146,2.507-3.576-3.9-1.85-5.225,2.747c-.1.157-.2.314-.291.471l5.522-2.9,3.476,1.648-2.231,3.184-7.939.163c-.084.162-.168.325-.247.488l8.18.325,2.187,3.162-3.527,1.643-7.356-4.043c-.067.14-.129.286-.19.426l7.053,4.458.314,3.829-3.874-.337L88.37,182.2c-.084.208-.163.42-.235.628l3.414,6.5L89.9,192.806l-3.185-2.231-.05-2.4c-.1.521-.18,1.037-.253,1.558l.023.992,3.577,2.506,1.85-3.9-3.235-6.151,3.6,5.948,4.351.376-.353-4.3-5.87-3.706,6.083,3.342.448-.208-.409.41-.022.011-.012.017-.022.027v.029l-.006.005.006.039v.578l.039-.079.314,3.852,3.443.3-.3.174-3.129-.269.179,2.175-.156-.112-.045.028L96.6,189.7l-4.407-.387h-.039l-.079.039-1.889,3.993,1.777,1.244-.19.106-1.677-1.171-1.39,2.943-.09.05.062.006-.09.186-.207-.018,1.553-3.285-3.616-2.528-.034-.011c-.011.1-.023.2-.028.307l3.324,2.327-1.6,3.387-.9.515-.734.427-.073-.04c.056.594.129,1.183.213,1.749v-1.468l.656-.376,1.25-.724,3.605.32.325,4.02-3.7,1.727-2.052-2.955c.039.225.073.443.118.656l1.833,2.652,4.1-1.906-.365-4.451-3.437-.3.292-.173,3.128.274-.174-2.175.158.107.044-.023.174,2.109,4.4.386h.04l.084-.034,1.889-4-1.777-1.245.185-.106,1.676,1.172,1.391-2.944.089-.05-.061-.005.089-.192.213.017-1.558,3.291,3.622,2.535h.005l.079.078.089-.084,2.036-1.408c-.034-.089-.062-.184-.1-.274l-2.029,1.4-3.353-2.344,1.6-3.386,1.458-.841.179-.1.27.157.8.465c-.016-.118-.033-.235-.05-.359l-.88-.51V186.28l.628-.9c0-.162,0-.325,0-.493l-.633.908v-.347l.639-.914c0-.168.006-.336.017-.511l-.656.937v-2.624l.74.348c.011-.1.017-.2.028-.3l-.948-.448.18-.078v-.051l.79.376c.011-.1.023-.2.039-.3l-.829-.393v-4.934l1.867-.869.291.426c.04-.112.079-.219.118-.33l-.308-.449-1.968.914v-.213l1.85-.863-1.85-2.686v-.1l-.034.045-.123-.168.123-.173,2.069,2.988.633-.3c.051-.129.107-.253.163-.382l-.7.325-2.13-3.077v-1.89l1.906-1.1,3.6.314.056.656c.079-.117.163-.23.247-.342l-.045-.571-3.436-.3.3-.174,3.128.275-.179-2.181.157.112.044-.028.174,2.114.426.04c.068-.09.14-.18.213-.264l-.381-.034-.162-2.007,4.272-2.467,0-.005.6.42a2.863,2.863,0,0,1,.236-.168l-.572-.4.19-.106.55.386a1.7,1.7,0,0,1,.241-.173l-.527-.37.5-.286,1.878-1.083-.364.763c.145-.089.291-.174.437-.263l.353-.746.084-.05-.061-.006.095-.19.207.016-.381.813c.14-.084.281-.163.421-.235l.364-.769,1.424-.83C118.623,160.529,118.421,160.54,118.214,160.552Zm-15.671,15.356-1.384-.656,1.384-1.974Zm0,9.346-1.435-2.075,1.435-.666Zm0-3.577-1.872.875-2.293-3.319,2.343-3.353,1.822.863ZM90.2,193.944l1.3.9-1.228.712-1.144.661Zm-.678,2.371.83-.481L91.8,195l.124,1.519Zm2.7-1.888v.005h0l-1.688-1.183,1.727-3.65,4.07.359.169,2.007Zm6.257-1.127-1.721,3.649-4.076-.359-.162-2.007,4.266-2.466H96.8Zm-1.261-1.756-.124-1.518,2.394.207-1.048.6Zm1.592,1.06-1.3-.908,1.194-.684,1.177-.684Zm3.728-4.132-1.9,1.1-3.6-.314-.331-4.02,3.706-1.732,2.13,3.083Zm.281-15.49,1.435,2.074-1.435.673Zm-.281-1.021-2.074,2.96-3.65-1.721.331-3.835.022-.241.27-.022,3.464-.281,1.637.942Zm4.009-6.324,1.295.9-1.228.712-1.144.662Zm-.684,2.371.83-.482,1.446-.835.124,1.525Zm8.572-5.275-.874.5-.123-1.519,2.4.207ZM96.326,170.15l-.252,2.91-4.323,2.618c-.124.18-.241.359-.353.538l4.939-2.988.3-3.375C96.533,169.943,96.427,170.044,96.326,170.15Z" fill="#011224"/>
            <path id="Path_3633" data-name="Path 3633" d="M92.446,213.158l-1.009-.477c.1.152.19.3.292.443l.47.225-.033.42c.078.117.162.241.252.359l.073-.847v-.051Z" fill="url(#linear-gradient-12)"/>
            <path id="Path_3634" data-name="Path 3634" d="M128.389,212.7v1.7H130.1v-1.7Zm1.43,1.424H128.67v-1.144h1.149Z" fill="url(#linear-gradient-13)"/>
            <path id="Path_3635" data-name="Path 3635" d="M144.161,208.7l-.107-.191-1.48.853.1.168.757,1.312,1.48-.852Zm-1.2.768.992-.578.572,1-.992.571Z" fill="url(#linear-gradient-14)"/>
            <path id="Path_3636" data-name="Path 3636" d="M137.3,214.632l-.852,1.48,1.474.852.858-1.48Zm.521,1.946-.992-.572.572-.992.992.572Z" fill="url(#linear-gradient-15)"/>
            <path id="Path_3637" data-name="Path 3637" d="M133.441,214.632l-1.48.852.858,1.48,1.474-.852Zm-1.093.954.992-.572.572.992-.992.572Z" fill="url(#linear-gradient-16)"/>
            <path id="Path_3638" data-name="Path 3638" d="M140.646,212.7v1.7h1.7l0-1.7Zm1.423,1.424h-1.143v-1.144h1.149Z" fill="url(#linear-gradient-17)"/>
            <path id="Path_3639" data-name="Path 3639" d="M149.4,211.257l-2.428-3.51-1.273-.05c-.129.09-.258.18-.386.263l1.508.062,2.186,3.162-3.526,1.643-4.53-2.489c-.112.05-.219.1-.331.14l4.85,2.663,3.885-1.811.073-.034Zm-2.282-4.62-.292.415-.246.006-.387.285.779-.016.959-1.368C147.665,206.189,147.4,206.419,147.121,206.637Zm-1.861,6.868-4.732-2.988c-.107.045-.213.09-.32.129l4.783,3.022.274,3.353c.09-.1.174-.191.258-.292Zm-7.306-2.079c-.09.027-.179.056-.274.077l3.582,5.927,3.364.292c.084-.084.163-.174.247-.264l-3.443-.3Zm-.28.083c-.09.023-.179.051-.275.073l3.185,6.056-1.649,3.475-3.184-2.231-.14-6.874c-.185.034-.376.074-.567.107l-.263,6.767-3.168,2.186-1.642-3.532,2.82-5.124c-.113.017-.225.022-.337.034l-2.8,5.079,1.844,3.958,3.555-2.45.274-6.951.14,6.951,3.578,2.5,1.85-3.9Zm-2.327,7.676-.117-.039-3.645,2.517,1.464,3.134-.3-.174-1.328-2.843-1.8,1.245.017-.2-.045-.028,1.744-1.206-1.867-4-.029-.045-.078-.045-4.39.364-.19,2.159-.185-.107.179-2.035-3.252.263-.084-.05.022.057-.207.016-.09-.191,3.628-.3.336-3.863.045.107v-.662l.006-.022-.006-.006V213.2l-.023-.023-.011-.022-.022-.011-.415-.415.465.218,1.267-.667-.47-.067-.808.426-2.175-1.031q-.875-.228-1.716-.517l0,.012,3.369,1.592.123.275-3.61-1.705-1.979,2.832v-.342l1.8-2.574-1.974-.936.045-.022c-.112-.051-.225-.1-.337-.157l-1.687.79-2-2.9c-.207-.14-.415-.285-.616-.437l-.017.028.05.062,2.49,3.6,1.968-.919v.218l-1.851.864,1.851,2.685v.1l.033-.051.118.174-.118.174-2.069-2.988-3.638,1.693.14-.28,3.386-1.582-2.455-3.549-6.953-.274,6.807-.141c-.124-.089-.242-.179-.359-.274l-9.116.19a2.187,2.187,0,0,0-.157-.622l5.69-2.994c-.061-.067-.123-.14-.185-.213l-3.291,1.727,3.145-1.9c-.061-.073-.123-.145-.185-.218l-5.376,3.252a1.871,1.871,0,0,0-.443-.454l3.689-5.842c-.056-.09-.112-.18-.163-.27l-2.338,3.706,2.182-3.97c-.051-.1-.107-.19-.163-.285l-3.549,6.459a2.112,2.112,0,0,0-.617-.174l.37-9.47,1.805-1.244c-.033-.09-.061-.185-.1-.281L103,195.828l-.274,6.924-.14-6.863v-.066l-3.577-2.5-1.851,3.9,3.241,6.156-3.605-5.954-4.351-.376.354,4.3,5.87,3.706-6.078-3.346-3.958,1.849,2.45,3.549,6.952.275-6.879.145h-.073l-1.419,2.025c.045.1.1.185.141.28l1.424-2.03,9.48-.2a1.956,1.956,0,0,0,.157.622l-8.387,4.413-1.5-.712c.084.146.173.292.263.432l1.245.588,6.144-3.229-5.943,3.6-.089,1.049c.078.112.162.23.252.342l.107-1.228,8.107-4.9a2.005,2.005,0,0,0,.448.453l-5.063,8.018-1.569.129c.073.09.157.173.235.263l1.5-.123,3.712-5.881-3.353,6.088,1.4,3.005c.162.135.325.269.493.4l-1.581-3.392,4.569-8.3a1.969,1.969,0,0,0,.617.174l-.376,9.475-3.106,2.147c.073.062.152.118.23.18l3.151-2.176.275-6.957.145,6.957,3.572,2.5,1.85-3.9-3.235-6.15,3.6,5.948,4.351.375-.353-4.3L106.7,209.8l6.083,3.341.448-.207-.409.409-.022.011-.006.016-.028.029v.028l-.006.006.006.039v.577l.039-.078.314,3.857,3.448.3-.3.174-3.123-.275.174,2.176-.157-.107-.045.023-.174-2.109-4.4-.387h-.045l-.079.04-1.889,3.992L108.3,222.9l-.19.107-1.671-1.172-1.4,2.944-.084.05.062.005-.012.017c.084.045.168.085.252.124l.186-.1,3.128.269-.179-2.175.157.112.044-.028.174,2.114,4.4.381h.044l.079-.04,1.889-3.992-1.777-1.244.185-.106,1.676,1.171,1.4-2.943.084-.05-.061-.006.095-.191.207.017-1.558,3.291,3.661,2.556h.09l3.627-2.506-1.458-3.134.3.174,1.329,2.848,1.794-1.245-.017.191.051.028-1.744,1.206,1.89,4.053.084.039,4.39-.358.185-2.165.19.113-.179,2.034,3.246-.269.09.051-.028-.051.207-.016.09.185-3.622.3-.129,1.491.286-.083.1-1.15,3.734-.3.039.022c.107-.044.208-.089.314-.14l-.482-.28-1.525-3.28,3.313-2.293,3.353,2.344-.639,1.351c.152-.1.3-.185.443-.286l.55-1.161Zm-16.18-8.544,1.384.655-1.384,1.968Zm-.28,2.926-1.436-2.075,1.436-.672ZM97.469,197.218l1.649-3.476,3.184,2.226.2,9.481a1.984,1.984,0,0,0-.622.157Zm-4.406,3.97-.314-3.83,3.879.337,4.906,8.107a2.014,2.014,0,0,0-.454.449Zm7.641,6.021-9.475-.375-2.186-3.162,3.532-1.643,8.3,4.563A2.043,2.043,0,0,0,100.7,207.209Zm2.013,1.929h-.011l-.1-.006a1.641,1.641,0,0,1-.752-.207l-.039-.022-.05-.034a1.725,1.725,0,0,1-.55-.555l-.022-.04-.028-.05a1.694,1.694,0,0,1-.2-.762v-.023l0-.078a1.671,1.671,0,0,1,.208-.757l.017-.034.033-.056a1.74,1.74,0,0,1,.561-.549l.039-.023.05-.028a1.817,1.817,0,0,1,.763-.2h.028l.073.006a1.624,1.624,0,0,1,.757.207l.033.017.057.039a1.647,1.647,0,0,1,.543.555l.028.039.023.051a1.644,1.644,0,0,1,.2.762l.006.017-.006.084a1.673,1.673,0,0,1-.207.757l-.023.034-.034.056a1.722,1.722,0,0,1-.555.549l-.033.017-.056.034A1.814,1.814,0,0,1,102.717,209.138Zm5.175,8.5-1.643,3.475-3.19-2.231-.2-9.475a2.04,2.04,0,0,0,.622-.157Zm4.412-3.97.314,3.83-3.879-.337-4.906-8.107a2.009,2.009,0,0,0,.448-.449Zm.488-.841-8.3-4.564a1.986,1.986,0,0,0,.168-.616l9.475.375,2.187,3.162Zm-6.246,9.425,1.3.908-1.233.706-1.144.662Zm-.678,2.371.83-.482,1.446-.83.124,1.519Zm2.708-1.883h-.006l-1.693-1.184,1.727-3.649,4.076.358.163,2.007Zm6.257-1.133-1.727,3.65-4.076-.359-.162-2.007,4.266-2.461.011-.006Zm-1.267-1.755-.123-1.519,2.4.207-1.054.611Zm1.592,1.06-1.295-.9,1.194-.689,1.183-.685Zm4.009-6.325,2.074-2.965,3.65,1.727-.353,4.075-3.734.3-1.637-.942Zm-2.181,3.292-3.605-.315-.331-4.019,3.706-1.727,2.131,3.078v1.889Zm5.472,3.526-3.319,2.293-3.347-2.344,1.6-3.386,1.329-.768.309-.174.168.1,1.732,1Zm.633-.437-1.02-2.182.28.158,2,1.154Zm1.239-1.206-2.209-1.272-.168-.1,2.518-.207Zm4.839,5.276-4.026.331-1.727-3.706,1.654-1.15,4.273,2.467Zm.157-2.388-1.6-.926-2.674-1.541.179-2.058,4.026-.331,1.726,3.706Zm1.984-.449,1.015,2.181-2.27-1.317Zm-1.379,2.776.14-1.576,2.372,1.368Zm2.091-12.5-2.887,4.575-3.835.314.337-3.88,1.805-1.088c-.157-.017-.314-.028-.465-.051l-1.6.976-.381,4.351,4.306-.353,3.067-4.866C132.247,212.463,132.135,212.468,132.022,212.474Zm9.2,5.146h-.045l-.079.045-1.883,3.987.488.342c.078-.056.162-.112.241-.174l-.376-.264,1.727-3.649,2.9.257c.084-.084.168-.174.252-.257Zm-2.1,4.211-.392.835c.151-.1.3-.2.454-.308l.05-.106.051.039c.084-.056.162-.112.246-.174Zm-30.539,3.51-3.134-.275c.258.118.516.236.785.353l2.091.18.056.673.286.1Zm-5.932-6.156-.117-.039-3.162,2.186c.078.062.157.123.235.179l2.955-2.046,3.352,2.344-1.334,2.825c.084.045.163.09.247.129l1.446-3.05Zm-5.875-1.592-.023-.045-.078-.045-1.4.117c.079.09.163.174.247.259l1.043-.085.925,1.985.521.454Z" fill="#011224"/>
            <path id="Path_3640" data-name="Path 3640" d="M149.184,211.633l-3.65,1.7-.039.022-.045.073.252,3.1c.09-.1.174-.2.258-.3l-.218-2.68,3.19-1.486C149.016,211.918,149.1,211.778,149.184,211.633Z" fill="url(#linear-gradient-18)"/>
            <path id="Path_3641" data-name="Path 3641" d="M125.1,225.851l-1.435,2.271c.118-.011.241-.028.359-.045l1.239-1.963,3.834-.314-.112,1.313.286-.084.129-1.531Z" fill="#011224"/>
            <path id="Path_3642" data-name="Path 3642" d="M122.895,221.679l-3.549,2.457-.168,4.171c.269,0,.544.011.819.011.465,0,.925-.011,1.384-.028l1.054-.611-.852-1.475-1.48.852.718,1.24h-1.363l.163-4.009,3.162-2.187,1.648,3.527-1.407,2.556c.112-.011.224-.017.337-.033l1.384-2.512Zm-2.411,5.478,1-.572.572.993-.992.572Z" fill="#011224"/>
            <path id="Path_3643" data-name="Path 3643" d="M113.134,225.733l-4.345-.375.09,1.087c.1.034.19.062.286.095l-.073-.874,3.879.337,1.077,1.782c.123.022.241.04.365.062Z" fill="#011224"/>
            <path id="Path_3644" data-name="Path 3644" d="M116.47,226.2l-.852,1.475.757.437c.3.034.605.067.908.09l.667-1.15ZM117,228.15l-1-.572.578-.993.992.572Zm1.929-4.02-3.577-2.5-1.845,3.9,1.245,2.372.342.05-1.273-2.427,1.643-3.476,3.184,2.226.084,4.014c.1.006.191.011.286.011Z" fill="#011224"/>
          </g>
          <path id="Path_3645" data-name="Path 3645" d="M121.715,209.766a24.693,24.693,0,0,1-15.324-15.52c-9.628-25.883,20.236-34.7,20.337-34.79-3.8-.041-6.971-.843-12.771.184a35.2,35.2,0,0,0-28.67,28.277c-2.021,11.055,1.011,21.583,8.786,30.468a34.59,34.59,0,0,0,25.673,11.409,35.626,35.626,0,0,0,10.426-1.571c25.858-7.9,25.013-33.866,25.8-35.861C155.971,192.362,145.324,217.8,121.715,209.766Zm7.638,15.776a31.9,31.9,0,0,1-33.189-9.024c-7.173-8.2-9.981-17.913-8.12-28.093A32.4,32.4,0,0,1,113.892,162.5a27.531,27.531,0,0,0-10.137,32.7,27.458,27.458,0,0,0,17.063,17.221,28.85,28.85,0,0,0,29.767-7.05A32.39,32.39,0,0,1,129.353,225.542Z" fill="#011224"/>
          <path id="Path_3646" data-name="Path 3646" d="M113.435,162.839a28.992,28.992,0,0,0-4.056,3.541,29.068,29.068,0,0,1,4.2-3.57ZM96.164,216.518c-7.173-8.2-9.981-17.913-8.12-28.093a32.424,32.424,0,0,1,8.8-16.846,32.431,32.431,0,0,0-9.111,17.158c-1.861,10.179.947,19.9,8.12,28.093a31.9,31.9,0,0,0,33.189,9.024,32.8,32.8,0,0,0,13.394-7.916,32.812,32.812,0,0,1-13.082,7.6A31.9,31.9,0,0,1,96.164,216.518Zm29.7-56.763c.538-.192.851-.29.861-.3-3.8-.041-6.971-.843-12.771.184A34.89,34.89,0,0,0,95,169.462a34.88,34.88,0,0,1,18.649-9.51C119.163,158.974,122.305,159.652,125.867,159.755Zm-19.476,34.491c-4.345-11.681-.646-19.886,4.731-25.383-5.543,5.5-9.471,13.79-5.042,25.695A24.689,24.689,0,0,0,121.4,210.077c12.306,4.189,21.089-.719,26.679-6.377-5.6,5.524-14.288,10.177-26.368,6.066A24.693,24.693,0,0,1,106.391,194.246Zm49.132-.921c-.474,3.314-1.021,16.59-10.689,26.4,10.876-10.741,10.544-25.864,11.137-27.368C155.971,192.362,155.822,192.717,155.523,193.325Z" fill="#011224" style="mix-blend-mode: screen;isolation: isolate"/>
        </g>
      </g>
      <g id="Group_76" data-name="Group 76" transform="translate(316.911 -19.338)">
        <g id="Group_12" data-name="Group 12" transform="translate(18.752 103.2)">
          <g id="Group_11" data-name="Group 11" transform="translate(0)">
            <path id="Path_2050" data-name="Path 2050" d="M100.466,84.251c-1.943,0-2.96-3.662-2.96-7.281s1.017-7.281,2.96-7.281,2.959,3.663,2.959,7.281S102.409,84.251,100.466,84.251Zm0-13.191c-.476,0-1.589,2.011-1.589,5.91s1.113,5.91,1.589,5.91,1.588-2.011,1.588-5.91S100.941,71.06,100.466,71.06Z" transform="translate(-97.506 -69.689)" fill="#011224"/>
          </g>
          <path id="Path_2051" data-name="Path 2051" d="M102.705,85.822a2.314,2.314,0,1,1-2.314-2.314A2.314,2.314,0,0,1,102.705,85.822Z" transform="translate(-97.432 -67.889)" fill="#011224"/>
          <path id="Path_2052" data-name="Path 2052" d="M101.7,82.5a1.41,1.41,0,1,1-1.409-1.411A1.41,1.41,0,0,1,101.7,82.5Z" transform="translate(-97.327 -68.204)" fill="#011224"/>
        </g>
        <g id="Group_16" data-name="Group 16" transform="translate(21.265)">
          <rect id="Rectangle_6" data-name="Rectangle 6" width="0.896" height="104.571" transform="translate(0)" fill="#011224"/>
        </g>
      </g>
    </g>
  </g>
</svg>
